<?xml version="1.0" encoding="iso-8859-1"?>
<!-- Generator: Adobe Illustrator 19.0.0, SVG Export Plug-In . SVG Version: 6.00 Build 0)  -->
<svg version="1.1" id="Capa_1" xmlns="http://www.w3.org/2000/svg" xmlns:xlink="http://www.w3.org/1999/xlink" x="0px" y="0px"
	 viewBox="0 0 60 60" style="enable-background:new 0 0 60 60;" xml:space="preserve">
<g fill="#141ed2">
	<circle cx="23" cy="54" r="1"/>
	<path d="M27,55h6c0.553,0,1-0.447,1-1s-0.447-1-1-1h-6c-0.553,0-1,0.447-1,1S26.447,55,27,55z"/>
	<path d="M37,55h1c0.553,0,1-0.447,1-1s-0.447-1-1-1h-1c-0.553,0-1,0.447-1,1S36.447,55,37,55z"/>
	<path d="M12,0v50v10h36V50V0H12z M28.293,4.293l1-1c0.391-0.391,1.023-0.391,1.414,0s0.391,1.023,0,1.414l-1,1
		C29.512,5.902,29.256,6,29,6s-0.512-0.098-0.707-0.293C27.902,5.316,27.902,4.684,28.293,4.293z M27.71,6.29
		C27.89,6.479,28,6.74,28,7s-0.11,0.52-0.29,0.71C27.52,7.89,27.26,8,27,8s-0.521-0.11-0.71-0.29C26.109,7.52,26,7.27,26,7
		c0-0.271,0.109-0.521,0.29-0.71C26.66,5.92,27.34,5.92,27.71,6.29z M24.293,3.293c0.391-0.391,1.023-0.391,1.414,0
		s0.391,1.023,0,1.414l-3,3C22.512,7.902,22.256,8,22,8s-0.512-0.098-0.707-0.293c-0.391-0.391-0.391-1.023,0-1.414L24.293,3.293z
		 M15.293,7.293l4-4c0.391-0.391,1.023-0.391,1.414,0s0.391,1.023,0,1.414l-4,4C16.512,8.902,16.256,9,16,9
		s-0.512-0.098-0.707-0.293C14.902,8.316,14.902,7.684,15.293,7.293z M21,9c0,0.26-0.11,0.52-0.29,0.71C20.52,9.89,20.26,10,20,10
		c-0.271,0-0.521-0.11-0.71-0.29C19.109,9.52,19,9.26,19,9s0.109-0.521,0.29-0.71c0.37-0.37,1.05-0.37,1.42,0
		C20.89,8.479,21,8.74,21,9z M15.293,12.293l2-2c0.391-0.391,1.023-0.391,1.414,0s0.391,1.023,0,1.414l-2,2
		C16.512,13.902,16.256,14,16,14s-0.512-0.098-0.707-0.293C14.902,13.316,14.902,12.684,15.293,12.293z M15.293,17.293l9-9
		c0.391-0.391,1.023-0.391,1.414,0s0.391,1.023,0,1.414l-9,9C16.512,18.902,16.256,19,16,19s-0.512-0.098-0.707-0.293
		C14.902,18.316,14.902,17.684,15.293,17.293z M46,58H14v-8h32V58z"/>
</g>
<g>
</g>
<g>
</g>
<g>
</g>
<g>
</g>
<g>
</g>
<g>
</g>
<g>
</g>
<g>
</g>
<g>
</g>
<g>
</g>
<g>
</g>
<g>
</g>
<g>
</g>
<g>
</g>
<g>
</g>
</svg>
